<svg width="64" height="64" viewBox="0 0 64 64" fill="none" xmlns="http://www.w3.org/2000/svg">
  <!-- Background rounded square -->
  <rect width="64" height="64" rx="12" fill="white" stroke="#E5E7EB" stroke-width="1"/>
  
  <!-- Bucket with sand -->
  <rect x="16" y="28" width="16" height="20" rx="2" fill="#D1D5DB" stroke="#374151" stroke-width="1.5"/>
  <rect x="18" y="30" width="12" height="16" rx="1" fill="#F59E0B" stroke="#374151" stroke-width="1"/>
  
  <!-- Sand pile -->
  <path d="M18 30 L30 30 L26 34 L22 34 Z" fill="#FBBF24"/>
  <path d="M20 32 L28 32 L25 36 L23 36 Z" fill="#F59E0B"/>
  
  <!-- Shovel -->
  <rect x="36" y="32" width="2" height="12" rx="1" fill="#A0522D" stroke="#374151" stroke-width="1"/>
  <path d="M36 32 L40 28 L42 30 L38 34 Z" fill="#8B4513" stroke="#374151" stroke-width="1"/>
  <rect x="37" y="29" width="4" height="2" rx="1" fill="#CD853F"/>
  
  <!-- Bricks -->
  <rect x="44" y="36" width="8" height="4" rx="1" fill="#A0522D" stroke="#374151" stroke-width="1"/>
  <rect x="46" y="40" width="8" height="4" rx="1" fill="#CD853F" stroke="#374151" stroke-width="1"/>
  <rect x="44" y="44" width="8" height="4" rx="1" fill="#A0522D" stroke="#374151" stroke-width="1"/>
</svg> 