<svg width="64" height="64" viewBox="0 0 64 64" fill="none" xmlns="http://www.w3.org/2000/svg">
  <!-- Background rounded square -->
  <rect width="64" height="64" rx="12" fill="white" stroke="#E5E7EB" stroke-width="1"/>
  
  <!-- Paint can -->
  <rect x="20" y="24" width="16" height="20" rx="2" fill="#FBBF24" stroke="#374151" stroke-width="1.5"/>
  <rect x="22" y="26" width="12" height="16" rx="1" fill="#F59E0B" stroke="#374151" stroke-width="1"/>
  
  <!-- Paint dripping -->
  <path d="M24 20 L26 18 L28 20 L26 22 Z" fill="#EF4444"/>
  <path d="M26 18 L26 16 L28 18 L26 20 Z" fill="#DC2626"/>
  <path d="M26 16 L26 14 L28 16 L26 18 Z" fill="#B91C1C"/>
  
  <!-- Paint roller -->
  <rect x="40" y="28" width="4" height="16" rx="2" fill="#9CA3AF" stroke="#374151" stroke-width="1.5"/>
  <rect x="38" y="44" width="8" height="4" rx="2" fill="#F87171" stroke="#374151" stroke-width="1.5"/>
  <rect x="39" y="45" width="6" height="2" rx="1" fill="#EF4444"/>
  
  <!-- Small paint bucket -->
  <rect x="44" y="32" width="8" height="10" rx="1" fill="#D1D5DB" stroke="#374151" stroke-width="1"/>
  <rect x="45" y="33" width="6" height="8" rx="0.5" fill="#F3F4F6"/>
</svg> 