<svg width="64" height="64" viewBox="0 0 64 64" fill="none" xmlns="http://www.w3.org/2000/svg">
  <!-- Background rounded square -->
  <rect width="64" height="64" rx="12" fill="white" stroke="#E5E7EB" stroke-width="1"/>
  
  <!-- Toolbox -->
  <rect x="16" y="32" width="24" height="16" rx="2" fill="#A0522D" stroke="#374151" stroke-width="1.5"/>
  <rect x="18" y="34" width="20" height="12" rx="1" fill="#CD853F" stroke="#374151" stroke-width="1"/>
  
  <!-- Toolbox handle -->
  <rect x="22" y="30" width="12" height="2" rx="1" fill="#8B4513" stroke="#374151" stroke-width="1"/>
  
  <!-- Saw -->
  <rect x="20" y="36" width="12" height="2" rx="1" fill="#9CA3AF" stroke="#374151" stroke-width="1"/>
  <path d="M20 36 L32 36 L30 38 L22 38 Z" fill="#6B7280"/>
  
  <!-- Hammer -->
  <rect x="36" y="36" width="6" height="8" rx="1" fill="#F87171" stroke="#374151" stroke-width="1"/>
  <rect x="38" y="34" width="2" height="4" rx="1" fill="#9CA3AF" stroke="#374151" stroke-width="1"/>
  <rect x="37" y="35" width="4" height="2" rx="0.5" fill="#EF4444"/>
  
  <!-- Pencils/Wooden dowels -->
  <rect x="22" y="42" width="1" height="4" rx="0.5" fill="#A0522D"/>
  <rect x="25" y="42" width="1" height="4" rx="0.5" fill="#A0522D"/>
  <rect x="28" y="42" width="1" height="4" rx="0.5" fill="#A0522D"/>
  <rect x="31" y="42" width="1" height="4" rx="0.5" fill="#A0522D"/>
  <rect x="34" y="42" width="1" height="4" rx="0.5" fill="#A0522D"/>
</svg> 